<mxfile host="app.diagrams.net" modified="2023-06-05T06:48:44.353Z" agent="Mozilla/5.0 (Macintosh; Intel Mac OS X 10_15_7) AppleWebKit/537.36 (KHTML, like Gecko) Chrome/114.0.0.0 Safari/537.36" etag="4zHbiP55aaQk4shaGfFY" version="21.3.5" type="github">
  <diagram name="Page-1" id="c4acf3e9-155e-7222-9cf6-157b1a14988f">
    <mxGraphModel dx="1242" dy="722" grid="1" gridSize="10" guides="1" tooltips="1" connect="1" arrows="1" fold="1" page="1" pageScale="1" pageWidth="850" pageHeight="1100" background="none" math="0" shadow="0">
      <root>
        <mxCell id="0" />
        <mxCell id="1" parent="0" />
        <mxCell id="17acba5748e5396b-1" value="frame" style="shape=umlFrame;whiteSpace=wrap;html=1;rounded=0;shadow=0;comic=0;labelBackgroundColor=none;strokeWidth=1;fontFamily=Verdana;fontSize=10;align=center;" parent="1" vertex="1">
          <mxGeometry x="40" y="50" width="1080" height="1060" as="geometry" />
        </mxCell>
        <mxCell id="PH6lNtW1mrk8BQ9RuyIa-7" value="&lt;div style=&quot;color: rgb(56, 58, 66); background-color: rgb(199, 237, 204); font-family: Menlo, Monaco, &amp;quot;Courier New&amp;quot;, monospace; font-weight: normal; line-height: 18px;&quot;&gt;WorkerScheduler&lt;/div&gt;" style="swimlane;fontStyle=1;align=center;verticalAlign=top;childLayout=stackLayout;horizontal=1;startSize=26;horizontalStack=0;resizeParent=1;resizeParentMax=0;resizeLast=0;collapsible=1;marginBottom=0;whiteSpace=wrap;html=1;" vertex="1" parent="1">
          <mxGeometry x="70" y="90" width="780" height="336" as="geometry" />
        </mxCell>
        <mxCell id="PH6lNtW1mrk8BQ9RuyIa-8" value="- schedule_pool_&lt;span style=&quot;background-color: initial;&quot;&gt;:&amp;nbsp;&lt;/span&gt;std::unique_ptr&lt;span style=&quot;font-family: Menlo, Monaco, &amp;quot;Courier New&amp;quot;, monospace; color: rgb(166, 38, 164);&quot;&gt;&amp;lt;&lt;/span&gt;&lt;span style=&quot;background-color: rgb(199, 237, 204); color: rgb(56, 58, 66); font-family: Menlo, Monaco, &amp;quot;Courier New&amp;quot;, monospace;&quot;&gt;thread_pool&lt;/span&gt;&lt;span style=&quot;font-family: Menlo, Monaco, &amp;quot;Courier New&amp;quot;, monospace; color: rgb(166, 38, 164);&quot;&gt;&amp;gt;&lt;/span&gt;" style="text;strokeColor=none;fillColor=none;align=left;verticalAlign=top;spacingLeft=4;spacingRight=4;overflow=hidden;rotatable=0;points=[[0,0.5],[1,0.5]];portConstraint=eastwest;whiteSpace=wrap;html=1;" vertex="1" parent="PH6lNtW1mrk8BQ9RuyIa-7">
          <mxGeometry y="26" width="780" height="26" as="geometry" />
        </mxCell>
        <mxCell id="PH6lNtW1mrk8BQ9RuyIa-15" value="- schedule_mutex_&lt;span style=&quot;background-color: initial;&quot;&gt;:&amp;nbsp;&lt;/span&gt;std::mutex " style="text;strokeColor=none;fillColor=none;align=left;verticalAlign=top;spacingLeft=4;spacingRight=4;overflow=hidden;rotatable=0;points=[[0,0.5],[1,0.5]];portConstraint=eastwest;whiteSpace=wrap;html=1;" vertex="1" parent="PH6lNtW1mrk8BQ9RuyIa-7">
          <mxGeometry y="52" width="780" height="26" as="geometry" />
        </mxCell>
        <mxCell id="PH6lNtW1mrk8BQ9RuyIa-14" value="- heartbebat_mutex_&lt;span style=&quot;background-color: initial;&quot;&gt;:&amp;nbsp;&lt;/span&gt;&lt;span style=&quot;background-color: initial;&quot;&gt;std::mutex&lt;/span&gt;" style="text;strokeColor=none;fillColor=none;align=left;verticalAlign=top;spacingLeft=4;spacingRight=4;overflow=hidden;rotatable=0;points=[[0,0.5],[1,0.5]];portConstraint=eastwest;whiteSpace=wrap;html=1;" vertex="1" parent="PH6lNtW1mrk8BQ9RuyIa-7">
          <mxGeometry y="78" width="780" height="26" as="geometry" />
        </mxCell>
        <mxCell id="PH6lNtW1mrk8BQ9RuyIa-17" value="- schedule_set_mutex_&lt;span style=&quot;background-color: initial;&quot;&gt;:&amp;nbsp;&lt;/span&gt;&lt;span style=&quot;background-color: initial;&quot;&gt;std::mutex&lt;/span&gt;" style="text;strokeColor=none;fillColor=none;align=left;verticalAlign=top;spacingLeft=4;spacingRight=4;overflow=hidden;rotatable=0;points=[[0,0.5],[1,0.5]];portConstraint=eastwest;whiteSpace=wrap;html=1;" vertex="1" parent="PH6lNtW1mrk8BQ9RuyIa-7">
          <mxGeometry y="104" width="780" height="26" as="geometry" />
        </mxCell>
        <mxCell id="PH6lNtW1mrk8BQ9RuyIa-16" value="- schedule_map_&lt;span style=&quot;background-color: initial;&quot;&gt;:&amp;nbsp;&lt;/span&gt;&lt;span style=&quot;background-color: initial;&quot;&gt;std::&lt;/span&gt;std::unordered_map&lt;span style=&quot;font-family: Menlo, Monaco, &amp;quot;Courier New&amp;quot;, monospace; color: rgb(166, 38, 164);&quot;&gt;&amp;lt;int64_t&lt;/span&gt;&lt;span style=&quot;background-color: rgb(199, 237, 204); color: rgb(56, 58, 66); font-family: Menlo, Monaco, &amp;quot;Courier New&amp;quot;, monospace;&quot;&gt;, ScheduleTask&lt;/span&gt;&lt;span style=&quot;font-family: Menlo, Monaco, &amp;quot;Courier New&amp;quot;, monospace; color: rgb(166, 38, 164);&quot;&gt;&amp;gt;&lt;/span&gt;" style="text;strokeColor=none;fillColor=none;align=left;verticalAlign=top;spacingLeft=4;spacingRight=4;overflow=hidden;rotatable=0;points=[[0,0.5],[1,0.5]];portConstraint=eastwest;whiteSpace=wrap;html=1;" vertex="1" parent="PH6lNtW1mrk8BQ9RuyIa-7">
          <mxGeometry y="130" width="780" height="26" as="geometry" />
        </mxCell>
        <mxCell id="PH6lNtW1mrk8BQ9RuyIa-18" value="- running_version_map_&lt;span style=&quot;background-color: initial;&quot;&gt;:&amp;nbsp;&lt;/span&gt;std::unordered_map&lt;span style=&quot;font-family: Menlo, Monaco, &amp;quot;Courier New&amp;quot;, monospace; color: rgb(166, 38, 164);&quot;&gt;&amp;lt;&lt;/span&gt;&lt;span style=&quot;background-color: rgb(199, 237, 204); color: rgb(56, 58, 66); font-family: Menlo, Monaco, &amp;quot;Courier New&amp;quot;, monospace;&quot;&gt;std::string, std::shared_ptr&lt;/span&gt;&lt;span style=&quot;font-family: Menlo, Monaco, &amp;quot;Courier New&amp;quot;, monospace; color: rgb(166, 38, 164);&quot;&gt;&amp;lt;&lt;/span&gt;&lt;span style=&quot;background-color: rgb(199, 237, 204); color: rgb(56, 58, 66); font-family: Menlo, Monaco, &amp;quot;Courier New&amp;quot;, monospace;&quot;&gt;ScheduleSet&lt;/span&gt;&lt;span style=&quot;font-family: Menlo, Monaco, &amp;quot;Courier New&amp;quot;, monospace; color: rgb(166, 38, 164);&quot;&gt;&amp;gt;&amp;gt;&lt;/span&gt;" style="text;strokeColor=none;fillColor=none;align=left;verticalAlign=top;spacingLeft=4;spacingRight=4;overflow=hidden;rotatable=0;points=[[0,0.5],[1,0.5]];portConstraint=eastwest;whiteSpace=wrap;html=1;" vertex="1" parent="PH6lNtW1mrk8BQ9RuyIa-7">
          <mxGeometry y="156" width="780" height="44" as="geometry" />
        </mxCell>
        <mxCell id="PH6lNtW1mrk8BQ9RuyIa-9" value="" style="line;strokeWidth=1;fillColor=none;align=left;verticalAlign=middle;spacingTop=-1;spacingLeft=3;spacingRight=3;rotatable=0;labelPosition=right;points=[];portConstraint=eastwest;strokeColor=inherit;" vertex="1" parent="PH6lNtW1mrk8BQ9RuyIa-7">
          <mxGeometry y="200" width="780" height="30" as="geometry" />
        </mxCell>
        <mxCell id="PH6lNtW1mrk8BQ9RuyIa-10" value="+&amp;nbsp;Init(&lt;span style=&quot;background-color: rgb(199, 237, 204); color: rgb(56, 58, 66); font-family: Menlo, Monaco, &amp;quot;Courier New&amp;quot;, monospace;&quot;&gt;pool_size:&lt;/span&gt;uint32_t&lt;span style=&quot;background-color: initial;&quot;&gt;):&amp;nbsp;&lt;/span&gt;Status" style="text;strokeColor=none;fillColor=none;align=left;verticalAlign=top;spacingLeft=4;spacingRight=4;overflow=hidden;rotatable=0;points=[[0,0.5],[1,0.5]];portConstraint=eastwest;whiteSpace=wrap;html=1;" vertex="1" parent="PH6lNtW1mrk8BQ9RuyIa-7">
          <mxGeometry y="230" width="780" height="26" as="geometry" />
        </mxCell>
        <mxCell id="PH6lNtW1mrk8BQ9RuyIa-11" value="+&amp;nbsp;AddSchedules(schedule_set:&amp;nbsp;&lt;span style=&quot;background-color: rgb(199, 237, 204); color: rgb(56, 58, 66); font-family: Menlo, Monaco, &amp;quot;Courier New&amp;quot;, monospace;&quot;&gt;std::&lt;/span&gt;&lt;span style=&quot;font-family: Menlo, Monaco, &amp;quot;Courier New&amp;quot;, monospace; color: rgb(193, 132, 1);&quot;&gt;shared_ptr&lt;/span&gt;&lt;span style=&quot;background-color: rgb(199, 237, 204); color: rgb(56, 58, 66); font-family: Menlo, Monaco, &amp;quot;Courier New&amp;quot;, monospace;&quot;&gt;&amp;lt;&lt;/span&gt;&lt;span style=&quot;font-family: Menlo, Monaco, &amp;quot;Courier New&amp;quot;, monospace; color: rgb(193, 132, 1);&quot;&gt;ScheduleSet&lt;/span&gt;&lt;span style=&quot;background-color: rgb(199, 237, 204); color: rgb(56, 58, 66); font-family: Menlo, Monaco, &amp;quot;Courier New&amp;quot;, monospace;&quot;&gt;&amp;gt;&lt;/span&gt;&lt;span style=&quot;background-color: initial;&quot;&gt;)&lt;/span&gt;" style="text;strokeColor=none;fillColor=none;align=left;verticalAlign=top;spacingLeft=4;spacingRight=4;overflow=hidden;rotatable=0;points=[[0,0.5],[1,0.5]];portConstraint=eastwest;whiteSpace=wrap;html=1;" vertex="1" parent="PH6lNtW1mrk8BQ9RuyIa-7">
          <mxGeometry y="256" width="780" height="26" as="geometry" />
        </mxCell>
        <mxCell id="PH6lNtW1mrk8BQ9RuyIa-12" value="+&amp;nbsp;GetAllSchedules(&lt;span style=&quot;background-color: rgb(199, 237, 204); color: rgb(56, 58, 66); font-family: Menlo, Monaco, &amp;quot;Courier New&amp;quot;, monospace;&quot;&gt;running_version_map&lt;/span&gt;:&amp;nbsp;&lt;span style=&quot;background-color: rgb(199, 237, 204); color: rgb(56, 58, 66); font-family: Menlo, Monaco, &amp;quot;Courier New&amp;quot;, monospace;&quot;&gt;std::&lt;/span&gt;&lt;span style=&quot;font-family: Menlo, Monaco, &amp;quot;Courier New&amp;quot;, monospace; color: rgb(193, 132, 1);&quot;&gt;unordered_map&lt;/span&gt;&lt;span style=&quot;background-color: rgb(199, 237, 204); color: rgb(56, 58, 66); font-family: Menlo, Monaco, &amp;quot;Courier New&amp;quot;, monospace;&quot;&gt;&amp;lt;std::&lt;/span&gt;&lt;span style=&quot;font-family: Menlo, Monaco, &amp;quot;Courier New&amp;quot;, monospace; color: rgb(193, 132, 1);&quot;&gt;string&lt;/span&gt;&lt;span style=&quot;background-color: rgb(199, 237, 204); color: rgb(56, 58, 66); font-family: Menlo, Monaco, &amp;quot;Courier New&amp;quot;, monospace;&quot;&gt;, std::&lt;/span&gt;&lt;span style=&quot;font-family: Menlo, Monaco, &amp;quot;Courier New&amp;quot;, monospace; color: rgb(193, 132, 1);&quot;&gt;shared_ptr&lt;/span&gt;&lt;span style=&quot;background-color: rgb(199, 237, 204); color: rgb(56, 58, 66); font-family: Menlo, Monaco, &amp;quot;Courier New&amp;quot;, monospace;&quot;&gt;&amp;lt;&lt;/span&gt;&lt;span style=&quot;font-family: Menlo, Monaco, &amp;quot;Courier New&amp;quot;, monospace; color: rgb(193, 132, 1);&quot;&gt;ScheduleSet&lt;/span&gt;&lt;span style=&quot;background-color: rgb(199, 237, 204); color: rgb(56, 58, 66); font-family: Menlo, Monaco, &amp;quot;Courier New&amp;quot;, monospace;&quot;&gt;&amp;gt;&amp;gt;&lt;/span&gt;&lt;span style=&quot;font-family: Menlo, Monaco, &amp;quot;Courier New&amp;quot;, monospace; color: rgb(166, 38, 164);&quot;&gt;*&lt;/span&gt;&lt;span style=&quot;background-color: initial;&quot;&gt;)&lt;/span&gt;" style="text;strokeColor=none;fillColor=none;align=left;verticalAlign=top;spacingLeft=4;spacingRight=4;overflow=hidden;rotatable=0;points=[[0,0.5],[1,0.5]];portConstraint=eastwest;whiteSpace=wrap;html=1;" vertex="1" parent="PH6lNtW1mrk8BQ9RuyIa-7">
          <mxGeometry y="282" width="780" height="28" as="geometry" />
        </mxCell>
        <mxCell id="PH6lNtW1mrk8BQ9RuyIa-19" value="+&amp;nbsp;GenerateSchedules(&lt;span style=&quot;background-color: rgb(199, 237, 204); color: rgb(56, 58, 66); font-family: Menlo, Monaco, &amp;quot;Courier New&amp;quot;, monospace;&quot;&gt;request&lt;/span&gt;&lt;span style=&quot;background-color: initial;&quot;&gt;:&lt;/span&gt;const&lt;span style=&quot;background-color: rgb(199, 237, 204); color: rgb(56, 58, 66); font-family: Menlo, Monaco, &amp;quot;Courier New&amp;quot;, monospace;&quot;&gt; schema::&lt;/span&gt;&lt;span style=&quot;font-family: Menlo, Monaco, &amp;quot;Courier New&amp;quot;, monospace; color: rgb(193, 132, 1);&quot;&gt;HeartBeatRequest&lt;/span&gt;&amp;amp;,response:&lt;span style=&quot;font-family: Menlo, Monaco, &amp;quot;Courier New&amp;quot;, monospace; color: rgb(166, 38, 164);&quot;&gt;const&lt;/span&gt;&lt;span style=&quot;background-color: rgb(199, 237, 204); color: rgb(56, 58, 66); font-family: Menlo, Monaco, &amp;quot;Courier New&amp;quot;, monospace;&quot;&gt; schema::&lt;/span&gt;&lt;span style=&quot;font-family: Menlo, Monaco, &amp;quot;Courier New&amp;quot;, monospace; color: rgb(193, 132, 1);&quot;&gt;HeartBeatResponse&lt;/span&gt;&lt;span style=&quot;font-family: Menlo, Monaco, &amp;quot;Courier New&amp;quot;, monospace; color: rgb(166, 38, 164);&quot;&gt;&amp;amp;&lt;/span&gt;&lt;span style=&quot;background-color: initial;&quot;&gt;)&lt;/span&gt;" style="text;strokeColor=none;fillColor=none;align=left;verticalAlign=top;spacingLeft=4;spacingRight=4;overflow=hidden;rotatable=0;points=[[0,0.5],[1,0.5]];portConstraint=eastwest;whiteSpace=wrap;html=1;" vertex="1" parent="PH6lNtW1mrk8BQ9RuyIa-7">
          <mxGeometry y="310" width="780" height="26" as="geometry" />
        </mxCell>
      </root>
    </mxGraphModel>
  </diagram>
</mxfile>
